<svg xmlns="http://www.w3.org/2000/svg" viewBox="0 0 160 160" role="img" aria-labelledby="title desc">
  <title id="title">SchoolWork mark</title>
  <desc id="desc">Two linked workspaces inside a bright green rounded square.</desc>
  <rect width="160" height="160" rx="35" fill="#C7F173"/>
  <path d="M49 43h32a12 12 0 0 1 12 12v15H79a10 10 0 0 0-10 10v13H54a12 12 0 0 1-12-12V55a12 12 0 0 1 12-12Z" fill="none" stroke="#172016" stroke-width="9" stroke-linejoin="round"/>
  <path d="M81 70h26a12 12 0 0 1 12 12v26a12 12 0 0 1-12 12H81a12 12 0 0 1-12-12V82a12 12 0 0 1 12-12Z" fill="none" stroke="#172016" stroke-width="9" stroke-linejoin="round"/>
  <circle cx="49" cy="101" r="6" fill="#172016"/>
  <circle cx="110" cy="59" r="6" fill="#172016"/>
</svg>
